<svg width="32" height="32" fill="none" xmlns="http://www.w3.org/2000/svg"><path opacity=".1" fill-rule="evenodd" clip-rule="evenodd" d="M0 16C0 7.163 7.163 0 16 0s16 7.163 16 16-7.163 16-16 16S0 24.837 0 16z" fill="#fff"/><path fill-rule="evenodd" clip-rule="evenodd" d="M24.533 15.988a8.536 8.536 0 01-.671 3.317 8.588 8.588 0 01-3.09 3.748 8.62 8.62 0 01-1.45.786 8.575 8.575 0 01-6.644 0 8.62 8.62 0 01-1.45-.786 8.598 8.598 0 01-3.09-3.748 8.492 8.492 0 01-.499-5.032 8.472 8.472 0 011.285-3.05 8.602 8.602 0 012.304-2.3A8.451 8.451 0 0114.28 7.64a8.6 8.6 0 015.04.496 8.564 8.564 0 013.754 3.087 8.443 8.443 0 011.285 3.05 8.55 8.55 0 01.173 1.715zM12.89 9.406a7.288 7.288 0 00-4.022 5.082c.192.001 3.23.04 6.728-.889a43.814 43.814 0 00-2.706-4.193zm3.31 5.314c-3.752 1.122-7.353 1.04-7.482 1.036-.002.078-.006.154-.006.232a7.24 7.24 0 001.867 4.863c-.002-.004 1.992-3.537 5.925-4.807.095-.032.191-.06.287-.088a24.67 24.67 0 00-.591-1.236zm4.612-4.194A7.258 7.258 0 0016 8.713c-.592 0-1.167.071-1.718.203.11.147 1.478 1.96 2.725 4.245 2.75-1.03 3.787-2.607 3.805-2.633zm-3.524 6.636l-.048.016c-4.3 1.497-5.704 4.513-5.72 4.546a7.278 7.278 0 004.48 1.54 7.26 7.26 0 002.845-.576c-.108-.636-.531-2.864-1.557-5.526zm2.784 4.861a7.279 7.279 0 003.123-4.882c-.15-.048-2.19-.692-4.541-.316.955 2.623 1.344 4.76 1.418 5.198zm-2.504-7.778a22.912 22.912 0 01.641 1.432c2.504-.315 4.97.215 5.076.236a7.234 7.234 0 00-1.657-4.548c-.014.02-1.183 1.706-4.06 2.88z" fill="#fff"/></svg>