<svg width="198" height="32" fill="none" xmlns="http://www.w3.org/2000/svg"><path d="M8.66 23.21c-2.46 0-4.48-.58-6.06-1.74C1.02 20.29.17 18.61.05 16.43h6.27c.06.74.28 1.28.66 1.62.38.34.87.51 1.47.51.54 0 .98-.13 1.32-.39.36-.28.54-.66.54-1.14 0-.62-.29-1.1-.87-1.44-.58-.34-1.52-.72-2.82-1.14-1.38-.46-2.5-.9-3.36-1.32-.84-.44-1.58-1.07-2.22-1.89C.42 10.4.11 9.31.11 7.97c0-1.36.34-2.52 1.02-3.48.68-.98 1.62-1.72 2.82-2.22 1.2-.5 2.56-.75 4.08-.75 2.46 0 4.42.58 5.88 1.74 1.48 1.14 2.27 2.75 2.37 4.83H9.89c-.02-.64-.22-1.12-.6-1.44-.36-.32-.83-.48-1.41-.48-.44 0-.8.13-1.08.39s-.42.63-.42 1.11c0 .4.15.75.45 1.05.32.28.71.53 1.17.75.46.2 1.14.46 2.04.78 1.34.46 2.44.92 3.3 1.38.88.44 1.63 1.07 2.25 1.89.64.8.96 1.82.96 3.06 0 1.26-.32 2.39-.96 3.39-.62 1-1.53 1.79-2.73 2.37-1.18.58-2.58.87-4.2.87zm9.663-8.64c0-1.74.31-3.26.93-4.56.64-1.3 1.5-2.3 2.58-3 1.1-.7 2.32-1.05 3.66-1.05 1.16 0 2.16.23 3 .69.84.46 1.49 1.08 1.95 1.86V6.17h5.88V23h-5.88v-2.34c-.46.78-1.12 1.4-1.98 1.86-.84.46-1.83.69-2.97.69-1.34 0-2.56-.35-3.66-1.05-1.08-.7-1.94-1.7-2.58-3-.62-1.32-.93-2.85-.93-4.59zm12.12 0c0-1.08-.3-1.93-.9-2.55-.58-.62-1.3-.93-2.16-.93-.88 0-1.61.31-2.19.93-.58.6-.87 1.45-.87 2.55 0 1.08.29 1.94.87 2.58.58.62 1.31.93 2.19.93.86 0 1.58-.31 2.16-.93.6-.62.9-1.48.9-2.58zM50.204 23l-4.65-6.9V23h-5.88V.8h5.88v11.97l4.65-6.6h7.05l-6.63 8.46 6.75 8.37h-7.17zm7.934-8.43c0-1.74.31-3.26.93-4.56.64-1.3 1.5-2.3 2.58-3 1.1-.7 2.32-1.05 3.66-1.05 1.16 0 2.16.23 3 .69.84.46 1.49 1.08 1.95 1.86V6.17h5.88V23h-5.88v-2.34c-.46.78-1.12 1.4-1.98 1.86-.84.46-1.83.69-2.97.69-1.34 0-2.56-.35-3.66-1.05-1.08-.7-1.94-1.7-2.58-3-.62-1.32-.93-2.85-.93-4.59zm12.12 0c0-1.08-.3-1.93-.9-2.55-.58-.62-1.3-.93-2.16-.93-.88 0-1.61.31-2.19.93-.58.6-.87 1.45-.87 2.55 0 1.08.29 1.94.87 2.58.58.62 1.31.93 2.19.93.86 0 1.58-.31 2.16-.93.6-.62.9-1.48.9-2.58zm22.61 4.98h-7.5L84.229 23h-6.18l7.71-21.15h6.78L100.22 23h-6.21l-1.14-3.45zm-1.47-4.5l-2.28-6.84-2.25 6.84h4.53zm16.947-9.09c1.14 0 2.13.23 2.97.69.86.46 1.52 1.08 1.98 1.86V6.17h5.88v16.65c0 1.58-.3 3-.9 4.26-.6 1.28-1.54 2.3-2.82 3.06-1.26.76-2.86 1.14-4.8 1.14-2.6 0-4.68-.61-6.24-1.83-1.56-1.22-2.45-2.88-2.67-4.98h5.79c.12.54.42.96.9 1.26.48.3 1.1.45 1.86.45 2 0 3-1.12 3-3.36v-2.16c-.46.78-1.12 1.4-1.98 1.86-.84.46-1.83.69-2.97.69-1.34 0-2.56-.35-3.66-1.05-1.08-.7-1.94-1.7-2.58-3-.62-1.32-.93-2.85-.93-4.59 0-1.74.31-3.26.93-4.56.64-1.3 1.5-2.3 2.58-3 1.1-.7 2.32-1.05 3.66-1.05zm4.95 8.61c0-1.08-.3-1.93-.9-2.55-.58-.62-1.3-.93-2.16-.93-.88 0-1.61.31-2.19.93-.58.6-.87 1.45-.87 2.55 0 1.08.29 1.94.87 2.58.58.62 1.31.93 2.19.93.86 0 1.58-.31 2.16-.93.6-.62.9-1.48.9-2.58zm25.311-.18c0 .46-.03.92-.09 1.38h-11.13c.06.92.31 1.61.75 2.07.46.44 1.04.66 1.74.66.98 0 1.68-.44 2.1-1.32h6.27c-.26 1.16-.77 2.2-1.53 3.12-.74.9-1.68 1.61-2.82 2.13-1.14.52-2.4.78-3.78.78-1.66 0-3.14-.35-4.44-1.05-1.28-.7-2.29-1.7-3.03-3-.72-1.3-1.08-2.83-1.08-4.59 0-1.76.36-3.28 1.08-4.56.72-1.3 1.72-2.3 3-3 1.3-.7 2.79-1.05 4.47-1.05 1.66 0 3.13.34 4.41 1.02 1.28.68 2.28 1.66 3 2.94.72 1.26 1.08 2.75 1.08 4.47zm-6-1.47c0-.72-.24-1.28-.72-1.68-.48-.42-1.08-.63-1.8-.63s-1.31.2-1.77.6c-.46.38-.76.95-.9 1.71h5.19zm19.416-6.9c1.94 0 3.48.65 4.62 1.95 1.14 1.28 1.71 3.02 1.71 5.22V23h-5.88v-9.03c0-.96-.25-1.71-.75-2.25-.5-.56-1.17-.84-2.01-.84-.88 0-1.57.28-2.07.84-.5.54-.75 1.29-.75 2.25V23h-5.88V6.17h5.88v2.4c.52-.76 1.22-1.37 2.1-1.83.88-.48 1.89-.72 3.03-.72zm8.596 8.55c0-1.74.36-3.26 1.08-4.56.72-1.3 1.72-2.3 3-3 1.3-.7 2.78-1.05 4.44-1.05 2.14 0 3.94.59 5.4 1.77 1.46 1.16 2.4 2.79 2.82 4.89h-6.24c-.36-1.1-1.06-1.65-2.1-1.65-.74 0-1.33.31-1.77.93-.42.6-.63 1.49-.63 2.67s.21 2.08.63 2.7c.44.62 1.03.93 1.77.93 1.06 0 1.76-.55 2.1-1.65h6.24c-.42 2.08-1.36 3.71-2.82 4.89-1.46 1.18-3.26 1.77-5.4 1.77-1.66 0-3.14-.35-4.44-1.05-1.28-.7-2.28-1.7-3-3-.72-1.3-1.08-2.83-1.08-4.59zm37.303-8.4l-10.68 24.84h-6.39l4.02-8.73-6.9-16.11h6.54l3.54 9.54 3.42-9.54h6.45z" fill="#fff"/></svg>